<svg width="376" height="86" viewBox="0 0 376 86" fill="none" xmlns="http://www.w3.org/2000/svg">
<path fill-rule="evenodd" clip-rule="evenodd" d="M115.09 11.2781H120.903V17.1207H126.715V13.6151H134.853V19.4578H138.34V67.3675H141.828V17.1207H146.478V13.6151H155.778V17.1207H158.103V32.3116H160.428V49.8395H165.079V67.3675H182.516V69.7045H162.753V52.1766H158.103V34.6487H155.778V19.4578H153.453V15.9522H148.803V19.4578H144.153V69.7045H136.015V21.7948H132.528V15.9522H129.04V19.4578H118.578V13.6151H117.415V19.4578H111.602V69.7045H103.465V27.6375H88.3519V69.7045H80.2142V31.1431H68.589V26.469H60.4513V69.7045H54.6387V46.3339H49.9886V40.4913H39.5258V48.671H32.5507V69.7045H23.2505V52.1766H17.4379V69.7045H0V67.3675H15.1128V49.8395H25.5755V67.3675H30.2256V46.3339H37.2008V38.1542H52.3136V43.9969H56.9637V67.3675H58.1262V24.1319H70.914V28.806H82.5393V67.3675H86.0268V25.3004H105.79V67.3675H109.277V17.1207H115.09V11.2781Z" fill="url(#paint0_linear)"/>
<path d="M211.905 14.1013H212.129C213.274 14.1013 214.313 14.3614 215.246 14.8818C216.186 15.3953 216.915 16.1211 217.432 17.0591C217.957 17.9971 218.219 19.0515 218.219 20.2223C218.219 21.3863 217.957 22.4339 217.432 23.3651C216.915 24.2894 216.193 25.0083 215.266 25.5218C214.347 26.0353 213.315 26.2955 212.17 26.3024H211.905V28.2537H209.422V26.3024H209.177C208.025 26.3024 206.98 26.0456 206.04 25.5321C205.1 25.0117 204.371 24.2894 203.853 23.3651C203.342 22.4407 203.087 21.4 203.087 20.2429C203.087 19.0721 203.346 18.0177 203.863 17.0796C204.381 16.1416 205.107 15.4124 206.04 14.8921C206.973 14.3649 208.019 14.1013 209.177 14.1013H209.422V12.0677H211.905V14.1013ZM209.177 16.1861C208.032 16.1861 207.136 16.5456 206.489 17.2645C205.849 17.9834 205.529 18.9762 205.529 20.2429C205.529 21.4753 205.849 22.4476 206.489 23.1596C207.13 23.8649 208.036 24.2175 209.207 24.2175H209.422V16.1861H209.177ZM211.905 16.1861V24.2175H212.15C213.294 24.2175 214.183 23.858 214.817 23.1391C215.457 22.4202 215.777 21.4479 215.777 20.2223C215.777 18.9694 215.457 17.9834 214.817 17.2645C214.183 16.5456 213.284 16.1861 212.119 16.1861H211.905Z" fill="#519F72"/>
<path d="M233.804 20.551C233.804 22.0162 233.552 23.3034 233.048 24.4126C232.544 25.515 231.822 26.364 230.882 26.9596C229.949 27.5485 228.873 27.8429 227.653 27.8429C226.448 27.8429 225.372 27.5485 224.425 26.9596C223.485 26.364 222.756 25.5184 222.238 24.4229C221.727 23.3274 221.468 22.0641 221.462 20.6332V19.791C221.462 18.3326 221.717 17.0454 222.228 15.9294C222.746 14.8133 223.471 13.9609 224.404 13.3721C225.344 12.7764 226.421 12.4786 227.633 12.4786C228.846 12.4786 229.918 12.773 230.852 13.3618C231.792 13.9438 232.517 14.7859 233.028 15.8883C233.539 16.9838 233.798 18.2607 233.804 19.7191V20.551ZM231.219 19.7705C231.219 18.1135 230.906 16.8434 230.279 15.9602C229.66 15.0769 228.777 14.6353 227.633 14.6353C226.516 14.6353 225.641 15.0769 225.007 15.9602C224.38 16.8366 224.06 18.0793 224.047 19.6883V20.551C224.047 22.1942 224.363 23.4643 224.997 24.3613C225.637 25.2582 226.523 25.7067 227.653 25.7067C228.798 25.7067 229.677 25.2685 230.29 24.3921C230.909 23.5157 231.219 22.2353 231.219 20.551V19.7705Z" fill="#519F72"/>
<path d="M249.655 27.6375H247.081V20.9926H240.429V27.6375H237.844V12.684H240.429V18.9078H247.081V12.684H249.655V27.6375Z" fill="#519F72"/>
<path d="M268.091 31.3142H265.639V27.6375H255.841V31.3142H253.348L253.266 25.5629H254.461C255.054 24.9878 255.527 24.1524 255.882 23.0569C256.236 21.9546 256.464 20.7085 256.566 19.3186L256.954 12.684H266.334V25.5629H268.224L268.091 31.3142ZM257.384 25.5629H263.759V14.7791H259.417L259.172 18.9899C258.988 21.804 258.392 23.995 257.384 25.5629Z" fill="#519F72"/>
<path d="M285.744 16.7613C285.744 16.0903 285.492 15.5562 284.988 15.1591C284.484 14.762 283.8 14.5634 282.935 14.5634C282.192 14.5634 281.572 14.762 281.075 15.1591C280.578 15.5494 280.329 16.056 280.329 16.6791H277.754C277.754 15.8643 277.979 15.1386 278.429 14.5018C278.878 13.865 279.502 13.3721 280.299 13.0229C281.096 12.6668 281.974 12.4888 282.935 12.4888C284.638 12.4888 285.959 12.862 286.899 13.6083C287.846 14.3546 288.319 15.3987 288.319 16.7407C288.319 17.4186 288.115 18.0416 287.706 18.6099C287.298 19.1782 286.725 19.6267 285.99 19.9553C286.821 20.2429 287.454 20.6811 287.89 21.2699C288.333 21.8519 288.554 22.5777 288.554 23.4472C288.554 24.7892 288.043 25.8573 287.022 26.6515C286 27.4389 284.638 27.8326 282.935 27.8326C281.886 27.8326 280.935 27.6443 280.084 27.2678C279.239 26.8912 278.602 26.3777 278.173 25.7272C277.751 25.0768 277.54 24.3305 277.54 23.4883H280.115C280.115 24.1319 280.38 24.6762 280.912 25.1213C281.443 25.5595 282.117 25.7786 282.935 25.7786C283.847 25.7786 284.58 25.5629 285.131 25.1315C285.69 24.7002 285.969 24.1387 285.969 23.4472C285.969 22.6051 285.724 21.9957 285.234 21.6191C284.75 21.2357 284.038 21.044 283.098 21.044H281.351V18.9899H283.006C284.832 18.9899 285.744 18.247 285.744 16.7613Z" fill="#519F72"/>
<path d="M300.747 24.1559H294.985L293.779 27.6375H291.092L296.712 12.684H299.031L304.661 27.6375H301.963L300.747 24.1559ZM295.71 22.0607H300.022L297.866 15.8575L295.71 22.0607Z" fill="#519F72"/>
<path d="M310.458 12.684V25.5629H314.994V12.684H317.569V25.5629H322.075V12.684H324.65V25.6451H326.387L326.183 31.2321H323.914V27.6375H307.863V12.684H310.458Z" fill="#519F72"/>
<path d="M339.265 12.684H341.85V27.6375H339.265V16.9872L332.736 27.6375H330.151V12.684H332.736V23.3445L339.265 12.684Z" fill="#519F72"/>
<path d="M356.853 14.7791H352.214V27.6375H349.649V14.7791H345.051V12.684H356.853V14.7791Z" fill="#519F72"/>
<path d="M362.936 18.4045H365.981C367.07 18.4045 368.021 18.5928 368.831 18.9694C369.642 19.346 370.258 19.88 370.681 20.5715C371.103 21.2631 371.314 22.0641 371.314 22.9748C371.314 24.3715 370.841 25.4944 369.894 26.3434C368.954 27.1924 367.67 27.6238 366.042 27.6375H360.351V12.684H362.936V18.4045ZM375.36 27.6375H372.785V12.684H375.36V27.6375ZM362.936 20.4894V25.5629H365.97C366.842 25.5629 367.52 25.3267 368.004 24.8542C368.494 24.375 368.739 23.7416 368.739 22.9542C368.739 22.2011 368.501 21.6054 368.024 21.1672C367.547 20.729 366.886 20.5031 366.042 20.4894H362.936Z" fill="#519F72"/>
<path d="M214.086 51.0079H211.797V39.5783H205.976V51.0079H203.687V37.7159H214.086V51.0079Z" fill="#519F72"/>
<path d="M219.349 46.0691V51.0079H217.051V37.7159H222.11C223.588 37.7159 224.759 38.1024 225.625 38.8753C226.497 39.6482 226.933 40.6707 226.933 41.9427C226.933 43.2451 226.506 44.2585 225.652 44.9827C224.805 45.7069 223.615 46.0691 222.083 46.0691H219.349ZM219.349 44.2158H222.11C222.928 44.2158 223.551 44.0241 223.981 43.6407C224.411 43.2512 224.626 42.6913 224.626 41.961C224.626 41.2428 224.408 40.6707 223.972 40.2447C223.536 39.8126 222.937 39.5904 222.174 39.5783H219.349V44.2158Z" fill="#519F72"/>
<path d="M234.92 47.9131H229.798L228.726 51.0079H226.338L231.333 37.7159H233.395L238.399 51.0079H236.001L234.92 47.9131ZM230.443 46.0508H234.276L232.359 40.5368L230.443 46.0508Z" fill="#519F72"/>
<path d="M240.093 51.0079V37.7159H244.625C246.12 37.7159 247.258 38.0172 248.04 38.6197C248.821 39.2222 249.211 40.1199 249.211 41.3128C249.211 41.9214 249.048 42.4691 248.721 42.956C248.394 43.4429 247.915 43.8203 247.286 44.088C248 44.2828 248.551 44.651 248.939 45.1927C249.332 45.7282 249.529 46.3734 249.529 47.128C249.529 48.3757 249.129 49.3342 248.33 50.0037C247.537 50.6732 246.399 51.0079 244.915 51.0079H240.093ZM242.39 45.0101V49.1638H244.942C245.663 49.1638 246.226 48.9843 246.632 48.6252C247.037 48.2661 247.24 47.7671 247.24 47.128C247.24 45.7465 246.538 45.0405 245.133 45.0101H242.39ZM242.39 43.3121H244.643C245.357 43.3121 245.914 43.1508 246.314 42.8282C246.72 42.4996 246.922 42.037 246.922 41.4406C246.922 40.7833 246.735 40.3086 246.359 40.0164C245.99 39.7243 245.412 39.5783 244.625 39.5783H242.39V43.3121Z" fill="#519F72"/>
<path d="M268.992 54.2761H266.812V51.0079H258.102V54.2761H255.886L255.814 49.1638H256.876C257.403 48.6526 257.824 47.9101 258.139 46.9363C258.453 45.9565 258.656 44.8488 258.747 43.6133L259.092 37.7159H267.43V49.1638H269.11L268.992 54.2761ZM259.474 49.1638H265.141V39.5783H261.281L261.063 43.3212C260.9 45.8226 260.37 47.7701 259.474 49.1638Z" fill="#519F72"/>
<path d="M281.357 44.7088C281.357 46.0112 281.133 47.1554 280.685 48.1414C280.237 49.1212 279.595 49.8759 278.76 50.4054C277.93 50.9288 276.973 51.1905 275.89 51.1905C274.818 51.1905 273.861 50.9288 273.02 50.4054C272.184 49.8759 271.536 49.1243 271.076 48.1505C270.622 47.1767 270.392 46.0538 270.386 44.7819V44.0333C270.386 42.7369 270.613 41.5927 271.067 40.6007C271.527 39.6087 272.172 38.851 273.001 38.3276C273.837 37.7981 274.794 37.5333 275.871 37.5333C276.949 37.5333 277.903 37.795 278.732 38.3184C279.568 38.8357 280.213 39.5843 280.667 40.5642C281.121 41.538 281.351 42.673 281.357 43.9694V44.7088ZM279.059 44.015C279.059 42.5422 278.781 41.4132 278.224 40.6281C277.673 39.843 276.889 39.4504 275.871 39.4504C274.878 39.4504 274.1 39.843 273.537 40.6281C272.98 41.4071 272.696 42.5117 272.684 43.942V44.7088C272.684 46.1695 272.965 47.2985 273.528 48.0957C274.097 48.893 274.885 49.2916 275.89 49.2916C276.907 49.2916 277.688 48.9021 278.233 48.1231C278.784 47.3441 279.059 46.206 279.059 44.7088V44.015Z" fill="#519F72"/>
<path d="M293.94 37.7159V51.0079H291.652V39.5783H287.601L287.365 44.718C287.274 46.3247 287.077 47.5723 286.774 48.4609C286.478 49.3434 286.045 49.9885 285.476 50.3963C284.907 50.804 284.144 51.0079 283.187 51.0079H282.606V49.1638L282.969 49.1364C283.496 49.0878 283.901 48.9021 284.186 48.5796C284.477 48.257 284.695 47.7701 284.84 47.1189C284.991 46.4616 285.097 45.497 285.158 44.225L285.412 37.7159H293.94Z" fill="#519F72"/>
<path d="M299.158 42.8008H301.864C302.833 42.8008 303.678 42.9682 304.398 43.3029C305.119 43.6377 305.667 44.1124 306.042 44.7271C306.418 45.3418 306.605 46.0538 306.605 46.8633C306.605 48.1049 306.185 49.103 305.343 49.8577C304.507 50.6123 303.366 50.9957 301.919 51.0079H296.86V37.7159H299.158V42.8008ZM299.158 44.654V49.1638H301.855C302.63 49.1638 303.233 48.9539 303.663 48.5339C304.099 48.1079 304.317 47.5449 304.317 46.845C304.317 46.1756 304.105 45.6461 303.681 45.2566C303.257 44.8671 302.67 44.6662 301.919 44.654H299.158Z" fill="#519F72"/>
<path d="M311.124 37.7159V49.1638H315.156V37.7159H317.445V49.1638H321.45V37.7159H323.739V49.2369H325.283L325.101 54.2031H323.085V51.0079H308.817V37.7159H311.124Z" fill="#519F72"/>
<path d="M335.614 37.7159H337.911V51.0079H335.614V41.541L329.81 51.0079H327.512V37.7159H329.81V47.1919L335.614 37.7159Z" fill="#519F72"/>
<path d="M344.764 45.3113H343.202V51.0079H340.913V37.7159H343.202V43.3029H344.464L348.351 37.7159H351.167L346.626 44.0789L351.566 51.0079H348.805L344.764 45.3113Z" fill="#519F72"/>
<path d="M363.287 44.7088C363.287 46.0112 363.063 47.1554 362.615 48.1414C362.167 49.1212 361.525 49.8759 360.689 50.4054C359.86 50.9288 358.903 51.1905 357.819 51.1905C356.748 51.1905 355.791 50.9288 354.949 50.4054C354.114 49.8759 353.466 49.1243 353.006 48.1505C352.552 47.1767 352.322 46.0538 352.315 44.7819V44.0333C352.315 42.7369 352.543 41.5927 352.997 40.6007C353.457 39.6087 354.102 38.851 354.931 38.3276C355.767 37.7981 356.723 37.5333 357.801 37.5333C358.879 37.5333 359.833 37.795 360.662 38.3184C361.498 38.8357 362.142 39.5843 362.597 40.5642C363.051 41.538 363.281 42.673 363.287 43.9694V44.7088ZM360.989 44.015C360.989 42.5422 360.71 41.4132 360.153 40.6281C359.602 39.843 358.818 39.4504 357.801 39.4504C356.808 39.4504 356.03 39.843 355.467 40.6281C354.91 41.4071 354.625 42.5117 354.613 43.942V44.7088C354.613 46.1695 354.895 47.2985 355.458 48.0957C356.027 48.893 356.814 49.2916 357.819 49.2916C358.837 49.2916 359.618 48.9021 360.163 48.1231C360.714 47.3441 360.989 46.206 360.989 44.7088V44.015Z" fill="#519F72"/>
<path d="M365.762 51.0079V37.7159H370.294C371.789 37.7159 372.927 38.0172 373.708 38.6197C374.49 39.2222 374.88 40.1199 374.88 41.3128C374.88 41.9214 374.717 42.4691 374.39 42.956C374.063 43.4429 373.584 43.8203 372.955 44.088C373.669 44.2828 374.22 44.651 374.608 45.1927C375.001 45.7282 375.198 46.3734 375.198 47.128C375.198 48.3757 374.798 49.3342 373.999 50.0037C373.206 50.6732 372.068 51.0079 370.584 51.0079H365.762ZM368.059 45.0101V49.1638H370.611C371.332 49.1638 371.895 48.9843 372.301 48.6252C372.706 48.2661 372.909 47.7671 372.909 47.128C372.909 45.7465 372.207 45.0405 370.802 45.0101H368.059ZM368.059 43.3121H370.312C371.026 43.3121 371.583 43.1508 371.983 42.8282C372.389 42.4996 372.591 42.037 372.591 41.4406C372.591 40.7833 372.404 40.3086 372.028 40.0164C371.659 39.7243 371.081 39.5783 370.294 39.5783H368.059V43.3121Z" fill="#519F72"/>
<path d="M206.603 56.4125L210.417 66.6006L214.222 56.4125H217.192V69.7045H214.904V65.3225L215.131 59.4616L211.225 69.7045H209.581L205.685 59.4707L205.912 65.3225V69.7045H203.624V56.4125H206.603Z" fill="#84AB6B"/>
<path d="M218.732 64.6743C218.732 63.7066 218.923 62.8363 219.305 62.0634C219.686 61.2844 220.222 60.6879 220.912 60.2741C221.602 59.8541 222.396 59.6442 223.292 59.6442C224.618 59.6442 225.692 60.0732 226.516 60.9314C227.345 61.7895 227.793 62.9276 227.86 64.3457L227.869 64.866C227.869 65.8398 227.681 66.7101 227.306 67.477C226.937 68.2438 226.404 68.8372 225.708 69.2571C225.017 69.6771 224.218 69.8871 223.31 69.8871C221.923 69.8871 220.812 69.4245 219.977 68.4994C219.147 67.5683 218.732 66.3297 218.732 64.7839V64.6743ZM220.939 64.866C220.939 65.8824 221.148 66.6797 221.566 67.2579C221.984 67.83 222.565 68.116 223.31 68.116C224.055 68.116 224.633 67.8239 225.045 67.2396C225.462 66.6553 225.671 65.8002 225.671 64.6743C225.671 63.6762 225.456 62.885 225.026 62.3007C224.603 61.7165 224.024 61.4243 223.292 61.4243C222.571 61.4243 221.999 61.7134 221.575 62.2916C221.151 62.8637 220.939 63.7218 220.939 64.866Z" fill="#84AB6B"/>
<path d="M233.215 68.116C233.766 68.116 234.223 67.9547 234.586 67.6322C234.949 67.3096 235.143 66.911 235.167 66.4362H237.247C237.223 67.0509 237.032 67.6261 236.675 68.1616C236.318 68.6911 235.833 69.1111 235.222 69.4215C234.61 69.7319 233.95 69.8871 233.242 69.8871C231.867 69.8871 230.777 69.4397 229.972 68.5451C229.167 67.6504 228.764 66.4149 228.764 64.8386V64.6104C228.764 63.1071 229.164 61.9051 229.963 61.0044C230.762 60.0976 231.852 59.6442 233.233 59.6442C234.401 59.6442 235.352 59.988 236.085 60.6758C236.823 61.3574 237.211 62.2551 237.247 63.3689H235.167C235.143 62.8028 234.949 62.3373 234.586 61.9721C234.229 61.6069 233.772 61.4243 233.215 61.4243C232.5 61.4243 231.949 61.686 231.562 62.2095C231.174 62.7268 230.977 63.5149 230.971 64.5739V64.9299C230.971 66.0011 231.162 66.8014 231.543 67.3309C231.931 67.8543 232.488 68.116 233.215 68.116Z" fill="#84AB6B"/>
<path d="M241.848 65.7972H240.731V69.7045H238.524V59.8267H240.731V63.7705H241.702L244.418 59.8267H247.143L243.592 64.5556L247.442 69.7045H244.572L241.848 65.7972Z" fill="#84AB6B"/>
<path d="M247.157 64.6743C247.157 63.7066 247.348 62.8363 247.729 62.0634C248.11 61.2844 248.646 60.6879 249.337 60.2741C250.027 59.8541 250.82 59.6442 251.716 59.6442C253.042 59.6442 254.117 60.0732 254.94 60.9314C255.77 61.7895 256.218 62.9276 256.284 64.3457L256.294 64.866C256.294 65.8398 256.106 66.7101 255.73 67.477C255.361 68.2438 254.828 68.8372 254.132 69.2571C253.442 69.6771 252.642 69.8871 251.734 69.8871C250.348 69.8871 249.237 69.4245 248.401 68.4994C247.572 67.5683 247.157 66.3297 247.157 64.7839V64.6743ZM249.364 64.866C249.364 65.8824 249.573 66.6797 249.99 67.2579C250.408 67.83 250.99 68.116 251.734 68.116C252.479 68.116 253.057 67.8239 253.469 67.2396C253.887 66.6553 254.096 65.8002 254.096 64.6743C254.096 63.6762 253.881 62.885 253.451 62.3007C253.027 61.7165 252.449 61.4243 251.716 61.4243C250.996 61.4243 250.423 61.7134 250 62.2916C249.576 62.8637 249.364 63.7218 249.364 64.866Z" fill="#84AB6B"/>
<path d="M257.77 69.7045V59.8267H261.757C263.101 59.8267 264.124 60.0641 264.827 60.5388C265.529 61.0074 265.88 61.683 265.88 62.5655C265.88 63.0219 265.738 63.4328 265.454 63.7979C265.175 64.157 264.76 64.4339 264.209 64.6287C264.851 64.7626 265.36 65.0334 265.735 65.4412C266.11 65.8489 266.298 66.3297 266.298 66.8836C266.298 67.8026 265.959 68.5025 265.281 68.9833C264.609 69.4641 263.64 69.7045 262.375 69.7045H257.77ZM259.977 65.4959V67.9517H262.393C263.525 67.9517 264.091 67.5439 264.091 66.7284C264.091 65.9067 263.516 65.4959 262.366 65.4959H259.977ZM259.977 63.9075H261.793C263.047 63.9075 263.673 63.5362 263.673 62.7937C263.673 62.0147 263.08 61.613 261.893 61.5887H259.977V63.9075Z" fill="#84AB6B"/>
<path d="M271.689 68.116C272.24 68.116 272.697 67.9547 273.06 67.6322C273.424 67.3096 273.617 66.911 273.642 66.4362H275.722C275.697 67.0509 275.507 67.6261 275.149 68.1616C274.792 68.6911 274.308 69.1111 273.696 69.4215C273.085 69.7319 272.425 69.8871 271.716 69.8871C270.342 69.8871 269.252 69.4397 268.447 68.5451C267.641 67.6504 267.239 66.4149 267.239 64.8386V64.6104C267.239 63.1071 267.638 61.9051 268.438 61.0044C269.237 60.0976 270.327 59.6442 271.707 59.6442C272.876 59.6442 273.826 59.988 274.559 60.6758C275.298 61.3574 275.685 62.2551 275.722 63.3689H273.642C273.617 62.8028 273.424 62.3373 273.06 61.9721C272.703 61.6069 272.246 61.4243 271.689 61.4243C270.975 61.4243 270.424 61.686 270.036 62.2095C269.649 62.7268 269.452 63.5149 269.446 64.5739V64.9299C269.446 66.0011 269.636 66.8014 270.018 67.3309C270.405 67.8543 270.962 68.116 271.689 68.116Z" fill="#84AB6B"/>
<path d="M280.322 65.7972H279.205V69.7045H276.998V59.8267H279.205V63.7705H280.177L282.892 59.8267H285.617L282.066 64.5556L285.917 69.7045H283.047L280.322 65.7972Z" fill="#84AB6B"/>
<path d="M285.631 64.6743C285.631 63.7066 285.822 62.8363 286.204 62.0634C286.585 61.2844 287.121 60.6879 287.811 60.2741C288.501 59.8541 289.294 59.6442 290.191 59.6442C291.517 59.6442 292.591 60.0732 293.415 60.9314C294.244 61.7895 294.692 62.9276 294.759 64.3457L294.768 64.866C294.768 65.8398 294.58 66.7101 294.205 67.477C293.836 68.2438 293.303 68.8372 292.606 69.2571C291.916 69.6771 291.117 69.8871 290.209 69.8871C288.822 69.8871 287.711 69.4245 286.876 68.4994C286.046 67.5683 285.631 66.3297 285.631 64.7839V64.6743ZM287.838 64.866C287.838 65.8824 288.047 66.6797 288.465 67.2579C288.883 67.83 289.464 68.116 290.209 68.116C290.954 68.116 291.532 67.8239 291.943 67.2396C292.361 66.6553 292.57 65.8002 292.57 64.6743C292.57 63.6762 292.355 62.885 291.925 62.3007C291.501 61.7165 290.923 61.4243 290.191 61.4243C289.47 61.4243 288.898 61.7134 288.474 62.2916C288.05 62.8637 287.838 63.7218 287.838 64.866Z" fill="#84AB6B"/>
<path d="M302.211 59.8267H304.409V69.7045H302.211V63.1132L298.361 69.7045H296.163V59.8267H298.361V66.418L302.211 59.8267ZM303.247 56.0382C303.247 56.805 302.98 57.4258 302.448 57.9005C301.915 58.3752 301.203 58.6126 300.313 58.6126C299.423 58.6126 298.712 58.3752 298.179 57.9005C297.646 57.4258 297.38 56.805 297.38 56.0382H299.033C299.033 56.4398 299.145 56.7533 299.369 56.9785C299.599 57.1976 299.914 57.3071 300.313 57.3071C300.713 57.3071 301.025 57.1976 301.249 56.9785C301.473 56.7533 301.585 56.4398 301.585 56.0382H303.247Z" fill="#84AB6B"/>
<path d="M309.86 64.6743C309.86 63.7066 310.051 62.8363 310.432 62.0634C310.813 61.2844 311.349 60.6879 312.04 60.2741C312.73 59.8541 313.523 59.6442 314.419 59.6442C315.745 59.6442 316.82 60.0732 317.643 60.9314C318.473 61.7895 318.921 62.9276 318.987 64.3457L318.997 64.866C318.997 65.8398 318.809 66.7101 318.433 67.477C318.064 68.2438 317.531 68.8372 316.835 69.2571C316.145 69.6771 315.345 69.8871 314.437 69.8871C313.051 69.8871 311.94 69.4245 311.104 68.4994C310.275 67.5683 309.86 66.3297 309.86 64.7839V64.6743ZM312.067 64.866C312.067 65.8824 312.276 66.6797 312.693 67.2579C313.111 67.83 313.692 68.116 314.437 68.116C315.182 68.116 315.76 67.8239 316.172 67.2396C316.59 66.6553 316.799 65.8002 316.799 64.6743C316.799 63.6762 316.584 62.885 316.154 62.3007C315.73 61.7165 315.152 61.4243 314.419 61.4243C313.699 61.4243 313.126 61.7134 312.703 62.2916C312.279 62.8637 312.067 63.7218 312.067 64.866Z" fill="#84AB6B"/>
<path d="M324.932 60.3745C326.167 60.3745 327.157 60.7914 327.902 61.6252C328.647 62.4529 329.019 63.5788 329.019 65.003V65.1125C329.019 66.5367 328.614 67.69 327.802 68.5725C326.997 69.4549 325.901 69.8962 324.515 69.8962C323.164 69.8962 322.074 69.4458 321.245 68.5451C320.415 67.6443 320.001 66.4149 320.001 64.8569V64.2179C320.001 62.0877 320.376 60.4019 321.127 59.1603C321.878 57.9188 322.998 57.1428 324.487 56.8324C325.323 56.662 325.862 56.4824 326.104 56.2938C326.352 56.099 326.476 55.8373 326.476 55.5087H328.256C328.256 56.1234 328.156 56.6224 327.957 57.0058C327.757 57.3893 327.451 57.7027 327.039 57.9461C326.628 58.1835 325.919 58.4087 324.914 58.6217C323.994 58.8165 323.291 59.1634 322.807 59.6624C322.329 60.1615 322.008 60.8523 321.844 61.7347C322.722 60.8279 323.752 60.3745 324.932 60.3745ZM324.496 62.1547C323.782 62.1547 323.222 62.3981 322.816 62.885C322.41 63.3658 322.208 64.1083 322.208 65.1125C322.208 66.0619 322.407 66.8014 322.807 67.3309C323.207 67.8604 323.776 68.1251 324.515 68.1251C325.247 68.1251 325.813 67.8604 326.213 67.3309C326.619 66.7953 326.821 65.992 326.821 64.9208C326.821 64.0688 326.619 63.3962 326.213 62.9033C325.813 62.4042 325.241 62.1547 324.496 62.1547Z" fill="#84AB6B"/>
<path d="M338.543 59.8267V69.7045H336.336V61.6161H333.556L333.375 65.0577C333.26 66.7132 332.942 67.903 332.421 68.6272C331.906 69.3454 331.116 69.7045 330.051 69.7045H329.37L329.36 67.8604L329.815 67.8147C330.299 67.7478 330.65 67.4526 330.868 66.9292C331.092 66.3997 331.234 65.4381 331.295 64.0444L331.477 59.8267H338.543Z" fill="#84AB6B"/>
<path d="M346.204 69.7045C346.107 69.5158 346.022 69.2085 345.95 68.7824C345.247 69.5188 344.388 69.8871 343.37 69.8871C342.383 69.8871 341.578 69.604 340.954 69.038C340.331 68.472 340.019 67.7721 340.019 66.9383C340.019 65.8854 340.406 65.079 341.181 64.5191C341.963 63.9531 343.077 63.6701 344.524 63.6701H345.877V63.0219C345.877 62.5107 345.735 62.1029 345.45 61.7986C345.166 61.4882 344.733 61.3331 344.151 61.3331C343.649 61.3331 343.237 61.4609 342.916 61.7165C342.595 61.966 342.435 62.2855 342.435 62.675H340.228C340.228 62.1334 340.406 61.6282 340.764 61.1596C341.121 60.6849 341.605 60.3136 342.217 60.0458C342.834 59.7781 343.522 59.6442 344.279 59.6442C345.429 59.6442 346.346 59.9363 347.03 60.5206C347.715 61.0987 348.066 61.9143 348.084 62.9672V67.4222C348.084 68.3108 348.208 69.0198 348.456 69.5493V69.7045H346.204ZM343.779 68.1069C344.215 68.1069 344.624 68.0004 345.005 67.7874C345.393 67.5743 345.683 67.2883 345.877 66.9292V65.0669H344.687C343.87 65.0669 343.255 65.2099 342.844 65.4959C342.432 65.782 342.226 66.1867 342.226 66.7101C342.226 67.1361 342.365 67.477 342.644 67.7326C342.928 67.9821 343.307 68.1069 343.779 68.1069Z" fill="#84AB6B"/>
<path d="M353.874 68.116C354.425 68.116 354.883 67.9547 355.246 67.6322C355.609 67.3096 355.803 66.911 355.827 66.4362H357.907C357.883 67.0509 357.692 67.6261 357.335 68.1616C356.978 68.6911 356.493 69.1111 355.882 69.4215C355.27 69.7319 354.61 69.8871 353.902 69.8871C352.527 69.8871 351.437 69.4397 350.632 68.5451C349.827 67.6504 349.424 66.4149 349.424 64.8386V64.6104C349.424 63.1071 349.824 61.9051 350.623 61.0044C351.422 60.0976 352.512 59.6442 353.893 59.6442C355.061 59.6442 356.012 59.988 356.744 60.6758C357.483 61.3574 357.871 62.2551 357.907 63.3689H355.827C355.803 62.8028 355.609 62.3373 355.246 61.9721C354.889 61.6069 354.432 61.4243 353.874 61.4243C353.16 61.4243 352.609 61.686 352.221 62.2095C351.834 62.7268 351.637 63.5149 351.631 64.5739V64.9299C351.631 66.0011 351.822 66.8014 352.203 67.3309C352.591 67.8543 353.148 68.116 353.874 68.116Z" fill="#84AB6B"/>
<path d="M366.749 61.5887H363.561V69.7045H361.354V61.5887H358.203V59.8267H366.749V61.5887Z" fill="#84AB6B"/>
<path d="M373.802 59.8267H376V69.7045H373.802V63.1132L369.951 69.7045H367.753V59.8267H369.951V66.418L373.802 59.8267Z" fill="#84AB6B"/>
<defs>
<linearGradient id="paint0_linear" x1="0" y1="41.396" x2="181.354" y2="41.396" gradientUnits="userSpaceOnUse">
<stop stop-color="#378F64"/>
<stop offset="0.397753" stop-color="#84AB6B"/>
<stop offset="0.63439" stop-color="#84AB6B"/>
<stop offset="1" stop-color="#359877"/>
</linearGradient>
</defs>
</svg>
