<svg width="24" height="25" viewBox="0 0 24 25" fill="none" xmlns="http://www.w3.org/2000/svg">
<path d="M23.944 12.1995C23.9359 12.1787 23.9271 12.1581 23.9174 12.138C22.8531 9.92756 21.1968 8.05783 19.1276 6.73083C17.0016 5.36734 14.5369 4.64673 12.0001 4.64673C9.46337 4.64673 6.99856 5.36745 4.87254 6.73105C2.81096 8.05317 1.15925 9.91425 0.0945228 12.114C-0.024803 12.3426 -0.0336748 12.6189 0.0823241 12.8599C1.1465 15.0707 2.80286 16.9407 4.87221 18.2679C6.99834 19.6316 9.46315 20.3524 12.0001 20.3524C14.537 20.3524 17.0019 19.6316 19.1279 18.268C21.1972 16.9409 22.8535 15.071 23.9178 12.8605C24.0173 12.6534 24.0267 12.4138 23.944 12.1995ZM12.0001 18.6888C7.72139 18.6888 3.74715 16.2724 1.76298 12.4994C3.74715 8.72632 7.72139 6.31008 12.0001 6.31008C16.2788 6.31008 20.2531 8.72654 22.2373 12.4995C20.253 16.2722 16.2787 18.6888 12.0001 18.6888Z" fill="#CACACA"/>
<path d="M12 8.84961C9.98723 8.84961 8.34961 10.4872 8.34961 12.5C8.34961 14.5128 9.98723 16.1504 12 16.1504C14.0128 16.1504 15.6504 14.5128 15.6504 12.5C15.6504 10.4872 14.0128 8.84961 12 8.84961ZM12 14.487C10.9045 14.487 10.0131 13.5956 10.0131 12.5C10.0131 11.4045 10.9045 10.5131 12 10.5131C13.0956 10.5131 13.987 11.4045 13.987 12.5C13.987 13.5956 13.0956 14.487 12 14.487Z" fill="#CACACA"/>
</svg>
